<?xml version="1.0" encoding="UTF-8"?>
<svg id="Layer_2" data-name="Layer 2" xmlns="http://www.w3.org/2000/svg" viewBox="0 0 1634.74 1341.36">
  <defs>
    <style>
      .cls-1 {
        fill: #fff;
      }

      .cls-2 {
        fill: #5cc1e9;
      }
    </style>
  </defs>
  <g id="Layer_1-2" data-name="Layer 1">
    <g>
      <path class="cls-2" d="M1466.83,1341.36H187.33c-6.31-1.17-12.6-2.47-18.95-3.49-78.06-12.49-145.01-74.12-163.77-150.89-1.8-7.38-3.09-14.9-4.61-22.36V182.03c.83-3.96,1.64-7.92,2.49-11.87C20.36,87.83,70.8,35.05,149.84,8.64c12.1-4.04,24.98-5.82,37.49-8.64h441.82c7.26,4.74,15.6,8.38,21.59,14.38,58.01,58.16,115.67,116.65,173.24,175.26,5.34,5.44,10.66,7.82,18.41,7.81,191.97-.22,383.93-.2,575.9-.08,12.61.01,25.33.58,37.83,2.21,82.28,10.84,154.11,75.71,173.55,156.33,1.92,7.95,3.4,16.01,5.08,24.02v788.21c-1.16,5.97-2.25,11.97-3.48,17.91-15.61,75.11-58.31,126.09-132.83,148.37-10.3,3.09-21.06,4.67-31.59,6.93h0Z"/>
      <g>
        <g>
          <path class="cls-1" d="M716.45,916.32c-17.16,14.93-40.88,22.4-71.17,22.4s-54.49-7.41-71.32-22.24c-16.84-14.82-25.26-37.7-25.26-68.62v-141.06h49.88v141.06c0,6.14.53,12.18,1.59,18.11,1.06,5.93,3.28,11.17,6.67,15.73,3.39,4.56,8.1,8.26,14.14,11.12s14.14,4.29,24.3,4.29c17.79,0,30.07-3.97,36.85-11.91,6.78-7.94,10.17-20.38,10.17-37.33v-141.06h49.88v141.06c0,30.71-8.58,53.53-25.73,68.46Z"/>
          <path class="cls-1" d="M887.37,706.79c14.19,0,26.26,2.07,36.22,6.2,9.95,4.13,18.05,9.59,24.3,16.36,6.24,6.78,10.8,14.51,13.66,23.19,2.86,8.69,4.29,17.69,4.29,27s-1.43,18.06-4.29,26.85c-2.86,8.79-7.42,16.58-13.66,23.35-6.25,6.78-14.35,12.23-24.3,16.36-9.96,4.13-22.03,6.2-36.22,6.2h-52.42v81.33h-49.88v-226.84h102.3ZM873.71,813.54c5.72,0,11.22-.42,16.52-1.27,5.29-.84,9.95-2.49,13.98-4.93,4.02-2.43,7.25-5.88,9.69-10.32,2.43-4.45,3.65-10.27,3.65-17.47s-1.22-13.03-3.65-17.47c-2.44-4.45-5.67-7.89-9.69-10.32-4.03-2.43-8.69-4.08-13.98-4.93-5.3-.84-10.8-1.27-16.52-1.27h-38.76v67.99h38.76Z"/>
          <path class="cls-1" d="M1119.29,706.79c10.17,0,19.33,1.64,27.48,4.93,8.15,3.29,15.14,7.78,20.97,13.5,5.82,5.72,10.27,12.34,13.34,19.86,3.07,7.52,4.61,15.62,4.61,24.3,0,13.34-2.81,24.89-8.42,34.63-5.61,9.74-14.77,17.16-27.48,22.24v.63c6.14,1.7,11.22,4.29,15.25,7.78,4.02,3.5,7.31,7.63,9.85,12.39,2.54,4.77,4.39,10.01,5.56,15.73,1.16,5.72,1.96,11.44,2.38,17.16.21,3.6.42,7.84.64,12.71.21,4.87.58,9.85,1.11,14.93.53,5.08,1.38,9.9,2.54,14.46,1.16,4.56,2.91,8.42,5.24,11.6h-49.88c-2.76-7.2-4.45-15.78-5.08-25.73-.63-9.95-1.59-19.48-2.86-28.59-1.7-11.86-5.3-20.54-10.8-26.05-5.51-5.51-14.51-8.26-27-8.26h-49.88v88.64h-49.88v-226.84h122.32ZM1101.5,809.41c11.44,0,20.01-2.54,25.73-7.63,5.72-5.08,8.58-13.34,8.58-24.78s-2.86-19.01-8.58-23.99c-5.72-4.97-14.3-7.47-25.73-7.47h-54.65v63.86h54.65Z"/>
          <path class="cls-1" d="M1396.01,706.79v41.94h-119.77v48.61h109.92v38.76h-109.92v55.6h122.32v41.94h-172.2v-226.84h169.65Z"/>
        </g>
        <path class="cls-1" d="M307.71,1211.34c-26.79,0-53.17-3.34-78.4-9.92-24.81-6.48-46.98-16.76-65.91-30.57-18.68-13.62-33.74-31.24-44.74-52.39-9.48-18.19-14.76-39.83-15.71-64.29l-.07-1.74h87.82l.13,1.54c1.16,13.72,4.47,25.9,9.84,36.22,6.81,13.11,16.02,23.91,27.38,32.09,11.06,7.99,24.19,13.98,39.01,17.81,14.41,3.73,29.51,5.62,44.88,5.62,10.38,0,21.56-.87,33.24-2.58,12.23-1.78,23.88-5.28,34.63-10.4,11.2-5.32,20.69-12.79,28.22-22.19,8.01-10.01,12.07-22.68,12.07-37.66,0-16.38-5.41-29.95-16.08-40.33-9.62-9.35-22.24-17.19-37.51-23.3-14.53-5.81-31.17-10.95-49.45-15.28-17.8-4.21-35.96-8.93-54-14.03l-.32-.09c-18.33-4.57-36.49-10.28-53.96-16.95-16.91-6.44-32.23-14.89-45.55-25.1-12.95-9.92-23.57-22.52-31.56-37.45-7.89-14.7-11.89-32.98-11.89-54.31,0-24.02,5.14-45.05,15.26-62.5,10.3-17.76,23.96-32.76,40.62-44.59,16.85-11.97,36.24-20.98,57.62-26.77,21.68-5.87,43.63-8.84,65.24-8.84,25.45,0,50.22,2.88,73.62,8.55,22.94,5.57,43.56,14.69,61.31,27.1,17.48,12.24,31.55,28.09,41.83,47.11,8.72,16.16,13.8,35.71,15.08,58.12l.1,1.78h-88.22l-.21-1.44c-1.7-11.87-4.94-22.25-9.64-30.85-6.21-11.34-14.61-20.4-24.96-26.95-9.91-6.26-21.37-10.75-34.06-13.35-12.17-2.48-25.56-3.73-39.8-3.73-9.57,0-19.29,1.02-28.89,3.04-10.1,2.13-19.43,5.92-27.72,11.27-8.44,5.44-15.47,12.34-20.91,20.51-5.79,8.69-8.73,19.57-8.73,32.36,0,11.74,2.4,21.58,7.13,29.24,4.84,7.88,13.51,14.67,26.5,20.74,11.67,5.48,27.24,10.76,47.6,16.15,19.34,5.13,44.45,11.61,76.78,19.81l.53.12c9.08,1.82,21.98,5.2,38.31,10.03,15.69,4.64,31.57,12.2,47.18,22.45,15.28,10.05,28.71,23.73,39.93,40.64,10.86,16.4,16.36,37.97,16.36,64.12,0,21.54-4.22,41.8-12.54,60.21-8.28,18.28-20.77,34.31-37.14,47.62-16.58,13.49-37.56,24.18-62.36,31.78-25.09,7.68-54.67,11.58-87.9,11.58Z"/>
        <path class="cls-1" d="M298.53,705.02c25.31,0,49.95,2.86,73.23,8.51,22.73,5.52,43.17,14.56,60.74,26.85,17.26,12.09,31.16,27.75,41.31,46.53,8.62,15.97,13.61,35.24,14.88,57.42h-84.99c-1.73-12.08-5.02-22.61-9.83-31.41-6.35-11.59-14.94-20.86-25.53-27.56-10.09-6.37-21.73-10.94-34.62-13.57-12.29-2.5-25.79-3.77-40.13-3.77-9.68,0-19.51,1.03-29.24,3.07-10.31,2.17-19.82,6.04-28.29,11.5-8.63,5.57-15.83,12.63-21.4,21-5.98,8.96-9.01,20.16-9.01,33.29,0,12.06,2.48,22.19,7.39,30.13,5.01,8.16,13.92,15.16,27.22,21.38,11.76,5.52,27.43,10.83,47.88,16.25,19.42,5.16,44.54,11.64,76.79,19.81l.57.13c9.07,1.82,21.93,5.18,38.21,10,15.54,4.6,31.26,12.08,46.74,22.24,15.09,9.92,28.36,23.44,39.45,40.17,10.67,16.12,16.09,37.38,16.09,63.19,0,21.3-4.17,41.33-12.39,59.52-8.17,18.04-20.51,33.86-36.67,47.01-16.41,13.36-37.2,23.94-61.79,31.47-24.94,7.63-54.34,11.5-87.41,11.5-26.65,0-52.88-3.32-77.98-9.87-24.61-6.42-46.59-16.62-65.34-30.3-18.47-13.46-33.36-30.89-44.24-51.81-9.38-18-14.58-39.35-15.52-63.58h84.53c1.18,13.95,4.53,26.31,10.03,36.86,6.92,13.34,16.31,24.34,27.89,32.68,11.23,8.11,24.54,14.19,39.57,18.07,14.55,3.76,29.79,5.67,45.3,5.67,10.46,0,21.72-.87,33.48-2.6,12.39-1.8,24.21-5.35,35.11-10.55,11.42-5.43,21.12-13.05,28.81-22.66,8.26-10.32,12.44-23.34,12.44-38.7,0-16.85-5.58-30.82-16.59-41.53-9.78-9.51-22.59-17.47-38.06-23.66-14.6-5.84-31.31-11-49.69-15.36-17.78-4.21-35.93-8.92-53.93-14.01l-.35-.09c-18.29-4.57-36.39-10.25-53.79-16.9-16.76-6.39-31.94-14.75-45.13-24.86-12.75-9.77-23.22-22.19-31.11-36.9-7.76-14.46-11.7-32.47-11.7-53.52,0-23.72,5.06-44.47,15.04-61.66,10.17-17.55,23.68-32.37,40.14-44.06,16.69-11.86,35.89-20.78,57.08-26.52,21.54-5.83,43.35-8.78,64.8-8.78M298.53,701.66c-21.75,0-43.85,2.99-65.68,8.9-21.58,5.85-41.14,14.94-58.15,27.03-16.85,11.97-30.68,27.15-41.1,45.11-10.28,17.71-15.49,39.02-15.49,63.34,0,21.62,4.07,40.16,12.1,55.11,8.11,15.13,18.88,27.91,32.02,37.98,13.44,10.31,28.91,18.84,45.97,25.34,17.51,6.69,35.74,12.42,54.17,17.02l.29.08c18.01,5.09,36.2,9.81,54.02,14.03,18.21,4.31,34.77,9.43,49.22,15.21,15.06,6.03,27.5,13.75,36.97,22.95,10.33,10.06,15.57,23.22,15.57,39.13,0,14.58-3.94,26.9-11.7,36.61-7.37,9.2-16.66,16.51-27.63,21.72-10.6,5.05-22.09,8.5-34.15,10.26-11.6,1.7-22.7,2.56-33,2.56-15.23,0-30.19-1.87-44.46-5.56-14.62-3.78-27.55-9.68-38.44-17.54-11.15-8.03-20.19-18.63-26.88-31.5-5.27-10.12-8.52-22.1-9.66-35.59l-.26-3.08h-91.11l.13,3.49c.96,24.72,6.3,46.59,15.9,65,11.13,21.38,26.35,39.2,45.24,52.97,19.09,13.93,41.45,24.3,66.47,30.83,25.37,6.62,51.89,9.98,78.83,9.98,33.4,0,63.13-3.92,88.39-11.65,25.01-7.66,46.18-18.45,62.93-32.08,16.57-13.48,29.23-29.7,37.61-48.23,8.42-18.64,12.69-39.13,12.69-60.9,0-26.48-5.6-48.37-16.64-65.05-11.34-17.11-24.93-30.94-40.4-41.12-15.76-10.34-31.78-17.97-47.63-22.66-16.38-4.84-29.33-8.23-38.5-10.07l-.45-.1c-32.29-8.19-57.39-14.66-76.72-19.79-20.26-5.37-35.73-10.62-47.31-16.05-12.69-5.93-21.12-12.51-25.78-20.1-4.57-7.4-6.89-16.94-6.89-28.37,0-12.45,2.84-23.02,8.45-31.42,5.31-7.98,12.18-14.72,20.42-20.04,8.12-5.23,17.26-8.95,27.16-11.03,9.5-1.99,19.1-3,28.54-3,14.12,0,27.4,1.25,39.47,3.7,12.48,2.56,23.75,6.97,33.49,13.12,10.1,6.39,18.31,15.25,24.38,26.34,4.61,8.42,7.79,18.61,9.46,30.28l.41,2.88h91.46l-.2-3.55c-1.3-22.66-6.44-42.45-15.28-58.82-10.4-19.25-24.65-35.29-42.34-47.68-17.92-12.53-38.73-21.74-61.87-27.36-23.54-5.71-48.44-8.6-74.02-8.6h0Z"/>
        <path class="cls-1" d="M719.31,978.09v41.94h-119.77v48.61h109.92v38.76h-109.92v55.6h122.32v41.94h-172.2v-226.84h169.65Z"/>
        <path class="cls-1" d="M733.05,1079.55l-20.97-36.32,160.96-92.93,20.97,36.32-58.88,33.99,92.45,160.13-43.2,24.94-92.45-160.13-58.88,33.99Z"/>
        <path class="cls-1" d="M1015.21,1156.01v48.93h-49.88v-48.93h49.88Z"/>
      </g>
    </g>
  </g>
</svg>



